<?xml version="1.0" encoding="UTF-8"?>
<svg width="14px" height="14px" viewBox="0 0 14 14" version="1.1" xmlns="http://www.w3.org/2000/svg" xmlns:xlink="http://www.w3.org/1999/xlink">
    <!-- Generator: Sketch 63 (92445) - https://sketch.com -->
    <title>关闭@1x</title>
    <desc>Created with Sketch.</desc>
    <g id="关闭" stroke="none" stroke-width="1" fill="none" fill-rule="evenodd">
        <g id="分组" transform="translate(1.000000, 1.000000)" fill="#999999">
            <path d="M-1.6109127,5.80330086 L14.2175144,5.80330086 C14.4936568,5.80330086 14.7175144,6.02715848 14.7175144,6.30330086 C14.7175144,6.57944323 14.4936568,6.80330086 14.2175144,6.80330086 L-1.6109127,6.80330086 C-1.88705508,6.80330086 -2.1109127,6.57944323 -2.1109127,6.30330086 C-2.1109127,6.02715848 -1.88705508,5.80330086 -1.6109127,5.80330086 Z" id="矩形" transform="translate(6.303301, 6.303301) rotate(-315.000000) translate(-6.303301, -6.303301) "></path>
            <path d="M-1.6109127,5.80330086 L14.2175144,5.80330086 C14.4936568,5.80330086 14.7175144,6.02715848 14.7175144,6.30330086 C14.7175144,6.57944323 14.4936568,6.80330086 14.2175144,6.80330086 L-1.6109127,6.80330086 C-1.88705508,6.80330086 -2.1109127,6.57944323 -2.1109127,6.30330086 C-2.1109127,6.02715848 -1.88705508,5.80330086 -1.6109127,5.80330086 Z" id="矩形" transform="translate(6.303301, 6.303301) scale(-1, 1) rotate(-315.000000) translate(-6.303301, -6.303301) "></path>
        </g>
    </g>
</svg>