<?xml version="1.0" encoding="UTF-8"?>
<svg width="16px" height="16px" viewBox="0 0 16 16" version="1.1" xmlns="http://www.w3.org/2000/svg" xmlns:xlink="http://www.w3.org/1999/xlink">
    <!-- Generator: Sketch 63 (92445) - https://sketch.com -->
    <title>设置</title>
    <desc>Created with Sketch.</desc>
    <g id="设置" stroke="none" stroke-width="1" fill="none" fill-rule="evenodd">
        <g fill="#999999" fill-rule="nonzero" id="setting.设置">
            <g transform="translate(1.000000, 2.000000)">
                <path d="M13.8836223,5.21257429 C13.8225938,4.91733666 13.5877635,4.68476207 13.2846457,4.61935111 C12.7477428,4.49694934 12.2865433,4.16550733 12.0095795,3.70302194 C11.7326157,3.24053655 11.6643461,2.6878498 11.8208364,2.17502314 C11.9115464,1.8823828 11.821998,1.56520892 11.5902144,1.35817657 C10.9263746,0.789435271 10.1566719,0.348796756 9.32243112,0.059918509 C9.03082199,-0.041300561 8.70505007,0.037058707 8.49603553,0.258694862 C8.11879778,0.656472066 7.58632863,0.881935141 7.02902319,0.879870966 L6.99058619,0.879870966 C6.44732738,0.878132196 5.92860052,0.660321651 5.55560469,0.277330145 C5.33692232,0.0197727161 4.97072365,-0.0696283006 4.65233509,0.0568126284 C3.82726379,0.345832362 3.06637216,0.784296977 2.4101765,1.34885892 C2.16992785,1.54804009 2.07432858,1.86638502 2.16674213,2.15949374 C2.32998701,2.67093256 2.26814819,3.22503893 1.99584951,3.69077603 C1.72355083,4.15651312 1.26497141,4.49252522 0.728557553,4.61935111 C0.415824024,4.68770749 0.17741292,4.93363951 0.126377817,5.24052722 C-0.042125939,6.08160622 -0.042125939,6.94627024 0.126377817,7.78734924 C0.178238396,8.0938425 0.416281046,8.33939445 0.728557553,8.40852535 C1.26407553,8.5293233 1.72430467,8.8593406 2.00028514,9.32044522 C2.27626561,9.78154984 2.34346024,10.3327454 2.18596064,10.8435357 C2.09411962,11.1254163 2.18197245,11.4333057 2.4101765,11.6293234 C3.06533187,12.1998084 3.82617517,12.6445688 4.65233509,12.940005 C4.70470432,12.9584358 4.7599804,12.9678944 4.81569235,12.9679579 L4.91819103,12.9679579 C5.13666923,12.9637797 5.34477602,12.8768199 5.49794918,12.7256993 C5.87199779,12.3318119 6.39807536,12.1064221 6.95026509,12.1034769 C7.50245483,12.1005317 8.03105762,12.3202963 8.40955227,12.7101699 C8.63298801,12.9838198 9.01926705,13.075861 9.34805579,12.9337933 C10.1712995,12.6511047 10.9320336,12.2201074 11.5902144,11.6634881 C11.8324226,11.4614907 11.9269537,11.1388391 11.8304457,10.8435357 C11.6493745,10.3338607 11.7015765,9.77344554 11.9738999,9.30347932 C12.2462233,8.8335131 12.7127039,8.49880427 13.2558179,8.3836783 C13.5638499,8.31752487 13.8010753,8.07893371 13.8579976,7.7780316 C14.0382829,6.93260805 14.0469865,6.06122516 13.8836223,5.21257429 Z M12.9611342,7.50160823 C12.2009119,7.6947974 11.5538391,8.17839212 11.1675709,8.84204129 C10.7813026,9.50569046 10.6887962,10.29277 10.9111606,11.0236767 C10.371974,11.4622271 9.75714905,11.8049969 9.09501218,12.0361938 C8.54258375,11.4833638 7.78368537,11.1697586 6.98982511,11.1662517 C6.19596485,11.1627448 5.43415116,11.4696322 4.87655095,12.0175585 C4.24101084,11.7804947 3.65175802,11.4401929 3.13407341,11.0112532 C3.33765956,10.2777167 3.2323267,9.49580059 2.84125565,8.83758285 C2.45018459,8.17936511 1.80542337,7.69878624 1.04886592,7.50160823 C0.928465035,6.83998995 0.928465035,6.16303947 1.04886592,5.50142118 C2.62723951,5.08657602 3.56052454,3.51018911 3.13407341,1.97935267 C3.65844382,1.5426696 4.25658453,1.1969877 4.90217561,0.957517979 C5.45404428,1.50463934 6.21094243,1.81165687 7.00019544,1.80852924 C7.79981485,1.81970355 8.57020744,1.5173142 9.13665227,0.969941501 C9.77128619,1.20826528 10.3594465,1.54961198 10.8759267,1.97935267 C10.4532524,3.50971331 11.3850889,5.0836534 12.9611342,5.50142118 C13.0822653,6.16297729 13.0822653,6.84005213 12.9611342,7.50160823 Z M7.00660161,3.42358711 L7.00660161,3.42358711 C5.2719039,3.44405478 3.88181574,4.82252929 3.89961042,6.50462059 C3.89716396,7.316341 4.22253997,8.0967344 4.8060831,8.67873695 C5.38179546,9.25276973 6.17122706,9.5784323 6.99699236,9.58254818 L6.99699236,9.58254818 C8.72917656,9.55868893 10.1153933,8.18121337 10.0975774,6.50151471 C10.1000238,5.6897943 9.77464783,4.9094009 9.19110469,4.32739834 C8.61862018,3.7525367 7.83073967,3.42656085 7.00660161,3.42358711 Z M7.00660161,8.65078403 L7.00660161,8.65078403 C6.43958058,8.65038881 5.89717632,8.42610564 5.50435535,8.02960792 C5.09603875,7.62037582 4.8665274,7.07402433 4.86373861,6.50462059 C4.84589776,5.33710164 5.80579842,4.37576822 7.00980469,4.35534963 L7.00980469,4.35534963 C7.57985997,4.35465021 8.12566774,4.57890626 8.5216602,4.97652737 C8.93006273,5.38444679 9.15965972,5.92988898 9.16227694,6.49840883 C9.17168872,7.06180684 8.94920974,7.6056227 8.54405562,8.00955637 C8.1389015,8.41349004 7.58446606,8.6442483 7.00339852,8.65078403 L7.00660161,8.65078403 Z" id="形状"></path>
            </g>
        </g>
    </g>
</svg>